<?xml version="1.0" encoding="UTF-8"?>
<svg id="Layer_2" data-name="Layer 2" xmlns="http://www.w3.org/2000/svg" viewBox="0 0 691.08 183.91">
  <defs>
    <style>
      .cls-1 {
        stroke: #000;
        stroke-miterlimit: 10;
        stroke-width: 1.5px;
      }
    </style>
  </defs>
  <path class="cls-1" d="M267.64,157.86c31.2-29.57,24.72-81.43-12.78-102.33-2.23-1.24-10.37-4.32-11.35-5.43-1.98-2.26-1.03-6.56,2.43-6.64,2.27-.05,10.8,4.28,13.16,5.62,67.3,37.99,33.72,143.2-45.33,133.19-69.37-8.79-84.63-104.94-21.19-135.42,3.39-1.63,12.86-6.47,12.38.98-.21,3.3-8.42,5.55-11.35,7.12-31.55,16.85-43.23,56.82-25.39,88.1,20.37,35.7,69.43,43.24,99.4,14.83Z"/>
  <path class="cls-1" d="M222.21,27.45c1.88-.43,4.28-.15,5.02,1.86l.42,61.41c-.52,4.4-6.17,5.21-7.66,1.02l-.3-60.64c.21-1.49.9-3.27,2.53-3.65Z"/>
  <g>
    <path d="M3.07.4c3.93-.91,8.25,1.39,8.01,5.97.25,15.93-.17,61.39.16,76.35.01,2.92,1.78,3.45,4.43,3.4,15.32.03,87.02.05,101.25-.01,5.51.05,3.74-4.15,4.09-9.47-.02-14.65.02-38.48,0-54.01.4-8.91-.96-14,.86-19.68,1.99-3.5,7.65-3.21,9.5-1.39,2.15,16.29.05,89.35.76,139.17-.03,18.52.05,33.06-.04,38.66-.06.85-.29,1.53-.93,2.07-2.26,1.77-8.57,1.87-9.79-2.86-.53-2.23-.31-4.36-.36-6.79-.01-15.5,0-42.99,0-58.81-.02-5.57.05-9.87-.06-12.42-.09-1.75-.31-2.76-.97-3.32-20.18-2-84.98-.23-105.55-.67-4.58.47-2.9,3.35-3.29,11.01,0,2.1,0,4.18,0,6.39-.05,16.4.07,49.28-.04,62.14.38,5.98-5.93,7.66-9.62,5.67-.92-.52-1.35-1.29-1.42-2.41C-.04,159.98.02,47.84.02,3.78-.04,1.96.98.79,2.89.43l.18-.04Z"/>
    <path d="M327.22,62.15c6.44-4.84,11.46-12.15,19.56-14.77,13.36-5.18,30.69-4.06,41.63,5.12,4.54,2.92,7.87,11.39,12.88,12.33,4.26-.44,6.79-6.78,12.07-11,9.35-8.17,23.74-10.95,36.11-8.97,31.09,4.69,34.07,37,32.96,63.11,0,19.33,0,51.86,0,66.13,0,1.24,0,2.35-.1,3.5-.19,5.5-6.65,6.67-9.58,3.22-1.64-2-1.07-6.09-1.18-12.06.01-5.86,0-11.52,0-18.41-.48-27.77,1.02-45.8-.75-65.96-2.09-18.15-14.01-30.98-33.36-29.79-20.66.51-32.13,17.01-33.01,36.21-.48,19.07-.05,53.38-.19,78.76-.28,7.1,1.15,10.76-3.34,12.81-6.59,1.73-7.96-3.22-7.52-9.31,0-6.72,0-12.74,0-20.69,0-17.06,0-37.65,0-49.85,1.06-20.96-3.16-45.86-28.85-47.81-28.21-2.21-39.94,22.07-38.46,46.88"/>
    <path d="M511.54,12.86c.66-11.34,17.82-10.88,17.53.63-.67,10.91-17.07,10.53-17.53-.22v-.4ZM517.57,46.08c3.22-.47,8.03-.64,8.11,2.81.07,15.94.01,110.74.03,129.63,0,1.29-.02,2.58-1.23,3.24-2.79,1.29-9.55,1.52-9.51-2.24-.07-4.45-.01-15-.03-28.34,0-23.46,0-56.1,0-78.74.01-11.05-.02-19.64.02-23.54-.02-1.52.82-2.43,2.41-2.76l.2-.05Z"/>
    <path d="M558.17.54c16.72-1.18,75.22,0,95.05-.4,1.97-.04,4.02.31,5.03,1.9,1.7,2.6,1.11,7.23-2.65,8.14-1.76.41-3.49.25-5.38.29-17.87,0-62.44-.01-75.91,0-6.06-.28-5.73,1.75-5.74,7.65.02,18.75-.03,42.59.01,62.02.04,5.59.63,5.99,6.24,6.01,6.8.02,13.52,0,20.59,0,14.17,0,32.17,0,45.53,0,1.5,0,2.81-.02,4.19.07,5.7.1,6.96,5.92,3.8,8.93-1.71,1.62-5.08,1.31-10.09,1.34h-19.4c-14.08,0-28.71,0-42.64,0-5.64.15-8.66-1.06-8.23,6-.02,9.59,0,19.13,0,29,0,12.7,0,26.44,0,38.57-.08,4.86.34,8.27-.95,10.11-2.2,3.23-9.85,3.15-10.18-.56-.08-18.5-.08-134.04,0-177.51.05-.67.14-1.19.67-1.55l.07-.04Z"/>
    <path d="M673.55,12.86c.66-11.34,17.81-10.88,17.53.63-.67,10.91-17.07,10.53-17.53-.22v-.4ZM679.58,46.08c3.22-.47,8.03-.64,8.11,2.81.07,15.94.01,110.74.03,129.63,0,1.29-.02,2.58-1.23,3.24-2.79,1.29-9.55,1.52-9.51-2.24-.07-4.45-.01-15-.03-28.34,0-23.46,0-56.1,0-78.74.01-11.05-.02-19.64.02-23.54-.02-1.52.82-2.43,2.41-2.76l.2-.05Z"/>
  </g>
  <path d="M361.17,53.34c-19.35-1.19-31.12,14.04-33.22,32.18-1.77,20.17-.27,38.19-.75,65.96,0,6.89-.01,12.55,0,18.41-.11,5.97.46,10.06-1.18,12.06-2.93,3.45-9.4,2.28-9.58-3.22-.09-1.15-.11-2.26-.1-3.5,0-14.27,0-46.79,0-66.13-1.11-26.11,4.29-57.78,35.39-62.47"/>
</svg>