<?xml version="1.0" encoding="UTF-8"?>
<svg id="Layer_2" data-name="Layer 2" xmlns="http://www.w3.org/2000/svg" viewBox="0 0 144.24 157.15">
  <defs>
    <style>
      .cls-1 {
        stroke: #000;
        stroke-miterlimit: 10;
        stroke-width: 1.5px;
      }
    </style>
  </defs>
  <path class="cls-1" d="M115.94,131.34c31.2-29.57,24.72-81.43-12.78-102.33-2.23-1.24-10.37-4.32-11.35-5.43-1.98-2.26-1.03-6.56,2.43-6.64,2.27-.05,10.8,4.28,13.16,5.62,67.3,37.99,33.72,143.2-45.33,133.19C-7.29,146.94-22.55,50.8,40.89,20.32c3.39-1.63,12.86-6.47,12.38.98-.21,3.3-8.42,5.55-11.35,7.12C10.37,45.26-1.3,85.23,16.54,116.51c20.37,35.7,69.43,43.24,99.4,14.83Z"/>
  <path class="cls-1" d="M70.5.92c1.88-.43,4.28-.15,5.02,1.86l.42,61.41c-.52,4.4-6.17,5.21-7.66,1.02l-.3-60.64c.21-1.49.9-3.27,2.53-3.65Z"/>
</svg>